<svg xmlns="http://www.w3.org/2000/svg" viewBox="0 0 560.89 560.89"><defs><style>.cls-1{fill:#fff;}</style></defs><title>Recurso 1</title><g id="Capa_2" data-name="Capa 2"><g id="Capa_1-2" data-name="Capa 1"><path class="cls-1" d="M437.45,561.35H.11V.47H561V441.09c-.29-.45-.75-.86-.84-1.35-10.1-54.34-63.54-92.28-120-81.63a8.15,8.15,0,0,1-6-2A136.58,136.58,0,0,0,397.87,332c-6.26-2.81-12.71-5.19-19.23-7.82,3.1-17,4.33-33.77-9.1-47.3-12.83-12.92-29.36-15.62-47.36-15.36a30,30,0,0,1,1.84-2.75c15.43-18.11,24.89-38.75,27-62.65.16-1.87,1.7-3.82,3-5.37,6-7.06,12.66-13.62,18.09-21.07,6.32-8.68,8.95-18.66,6.29-29.5-1.67-6.81-5.22-12-12.35-13.94-1.69-.47-3.42-.8-5.54-1.29.75-6.87,1.43-13.37,2.17-19.86,3-26.49,1.76-51.37-25.15-66.87,6.95-11.25,12.13-22.75,5.33-36.33-2,1.46-3.59,2.66-5.23,3.79-11.74,8.06-24,12.16-37.88,5.29A36.43,36.43,0,0,0,294,9.14C266,.64,237.12-.09,208.45,2c-20.59,1.53-37.78,11.53-47.77,31.11a7.73,7.73,0,0,1-4.83,3.33c-16.65,3.34-28.13,12.67-33,29a85.1,85.1,0,0,0-3.49,20.9c-.54,13.43-.16,26.89-.16,40.41-12.3,3.7-16.24,9.2-16.34,22.58a35.73,35.73,0,0,0,7,22c5.51,7.4,12.08,14,18.06,21.07,1.42,1.67,3.13,3.72,3.32,5.73a106.21,106.21,0,0,0,19.21,51.59c2.43,3.48,5,6.89,7.47,10.35-8,1-15.44,1.47-22.74,2.87-21.18,4.05-33.47,15.64-36,34.89-.93,7.07.08,14.52,1.06,21.68.51,3.75.2,5.47-3.62,6.76C44.65,343.83-2.89,402.25,1.12,464.14c.62,9.55.08,19.18.08,29.27H8.31q173.57,0,347.13-.1c4.26,0,6.27,1.12,7.91,5.28,7.64,19.32,20.41,34.64,37.44,46.55C412,553,424.6,557.38,437.45,561.35Z" transform="translate(-0.11 -0.47)"/><path d="M437.45,561.35c-12.85-4-25.47-8.38-36.66-16.21-17-11.91-29.8-27.23-37.44-46.55-1.64-4.16-3.65-5.28-7.91-5.28q-173.56.18-347.13.1H1.2c0-10.09.54-19.72-.08-29.27-4-61.89,43.53-120.31,95.45-137.82,3.82-1.29,4.13-3,3.62-6.76-1-7.16-2-14.61-1.06-21.68,2.55-19.25,14.84-30.84,36-34.89,7.3-1.4,14.78-1.9,22.74-2.87-2.5-3.46-5-6.87-7.47-10.35a106.21,106.21,0,0,1-19.21-51.59c-.19-2-1.9-4.06-3.32-5.73-6-7.06-12.55-13.67-18.06-21.07a35.73,35.73,0,0,1-7-22c.1-13.38,4-18.88,16.34-22.58,0-13.52-.38-27,.16-40.41a85.1,85.1,0,0,1,3.49-20.9c4.9-16.34,16.38-25.67,33-29a7.73,7.73,0,0,0,4.83-3.33c10-19.58,27.18-29.58,47.77-31.11C237.12-.09,266,.64,294,9.14a36.43,36.43,0,0,1,5.7,1.83c13.86,6.87,26.14,2.77,37.88-5.29,1.64-1.13,3.22-2.33,5.23-3.79,6.8,13.58,1.62,25.08-5.33,36.33,26.91,15.5,28.19,40.38,25.15,66.87-.74,6.49-1.42,13-2.17,19.86,2.12.49,3.85.82,5.54,1.29,7.13,2,10.68,7.13,12.35,13.94,2.66,10.84,0,20.82-6.29,29.5-5.43,7.45-12.1,14-18.09,21.07-1.32,1.55-2.86,3.5-3,5.37-2.06,23.9-11.52,44.54-27,62.65a30,30,0,0,0-1.84,2.75c18-.26,34.53,2.44,47.36,15.36,13.43,13.53,12.2,30.26,9.1,47.3,6.52,2.63,13,5,19.23,7.82a136.58,136.58,0,0,1,36.24,24.09,8.15,8.15,0,0,0,6,2c56.49-10.65,109.93,27.29,120,81.63.09.49.55.9.84,1.35v36.08a21.58,21.58,0,0,0-1.13,2.91c-6.7,29.65-22.62,52.94-49,68.21-9.58,5.56-20.51,8.78-30.82,13.06Zm-140-167.92c0,2.93.19,5.31-.05,7.64-.35,3.51.73,5.4,4.25,6.93,9.69,4.21,14.61,14.41,12.61,24.74-2.12,10.92-10.77,18.67-21.48,19.24a23.39,23.39,0,0,1-23.53-16c-3.25-10,.38-21.86,9.69-26.54,5.88-2.95,7.3-6.54,6.46-12.23a30.56,30.56,0,0,1,0-3.83c-.25-14.77-10.79-25.44-25.58-25.66-10-.15-20-.1-30.07,0-16.54.12-26.86,10.37-27.12,27-.11,7.29.15,14.59-.1,21.87-.12,3.52.79,5.42,4.29,6.94,9.67,4.18,14.62,14.21,12.83,24.7a23.52,23.52,0,0,1-20.5,19.13c-11.53,1.26-21.7-4.4-25.74-14.31-3.9-9.58-1.7-22.22,7.42-26.61s8.32-10.79,8.19-18.06a29.27,29.27,0,0,1,0-5.46c1.06-6-1.52-8.25-7.35-9.81-31-8.27-56.39-25-74.1-52.21-2.08-3.22-3.88-2.78-6.69-1.62-47.29,19.35-76.32,54-86.27,104.07-2.37,12-2.12,24.43-3.09,36.88h345.1c-6.81-55.08,15.76-93.42,65-117.34a127.91,127.91,0,0,0-43.76-25.08c-2.79-.94-4-.15-5.72,2.08-7,8.82-13.64,18.07-21.73,25.77C335.72,379.66,317.46,387.91,297.49,393.43Zm161.7,156.79c49.4.12,90.43-40.5,90.67-89.75a90.94,90.94,0,0,0-90.3-91.25c-49.38-.31-90.69,40.83-90.69,90.32C368.86,509.26,409.53,550.09,459.19,550.22Zm-129.8-525c-9.79,1.55-18.78,2.74-27.68-.58-23-8.56-47-11.15-71.22-12.48-13.94-.77-27.66,1.33-40.2,8.13-9.1,4.94-16.62,11.78-19,22.08-1.18,5-3.24,5.69-7.54,6-18,1.06-28.49,9.45-30.54,27.38-1.7,14.9-.51,30.14-.35,45.22,0,1.35,1.56,3.28,2.9,3.93a99.37,99.37,0,0,0,12.15,4.82,4.47,4.47,0,0,0,3.74-.57A24.59,24.59,0,0,1,168.74,123c15.63.16,31.27.37,46.86,1.33,7.61.47,14.3,3.86,18.67,10.83,2.1,3.36,11.43,3.66,13.35.46a20.67,20.67,0,0,1,16.49-10.41c17.37-1.38,34.81-2.28,52.23-2.4,4.83,0,9.68,3.31,14.53,5.08,1.25.45,2.66,1.34,3.8,1.1,10.06-2.13,13-4.93,13.78-15.07.95-12.82,2.39-25.83,1.26-38.54-1.59-17.82-12.33-26.94-30.11-28.57l-7.68-.68C318.06,38.79,323.73,32,329.39,25.22ZM143.48,142.33c-5.62-1.92-11.52-7.71-19.17-2.46a4.69,4.69,0,0,1-2.67.41c-3.75-.11-5.72,2.26-5.45,5.39.47,5.49.79,11.37,3,16.26,4.81,10.66,13.66,18.19,22.38,25.75,2.36,2,4.75,5.44,5,8.38,1.71,22.68,10.48,42.28,25.3,59.16,16.84,19.17,37.4,32.36,63.11,36,19,2.65,36-4,51.61-13.92,31.37-20,51.58-47.16,53.26-85.76.08-1.79,1.69-3.7,3-5.22,7.23-8.57,15.32-16.54,21.55-25.77,2.9-4.31,2.52-11,3-16.63.12-1.35-2-4-3.37-4.21-8.53-1.19-17.21-2.35-23.66,2.82-1.68,10.46-2.89,20-4.82,29.4A21.89,21.89,0,0,1,320.29,189c-15.86,5.24-31.81,5.51-47.54-.52-6.27-2.41-11.34-6.41-14.28-12.77-3.43-7.42-7.35-14.63-10.52-22.16-1.61-3.84-4.46-3.41-7.13-3a7.12,7.12,0,0,0-4.56,3.2c-3.76,7-7.25,14.24-10.64,21.47-4.14,8.83-11.34,14.23-20.54,15.36a203,203,0,0,1-32.53,1c-13.88-.54-22.18-8.18-24.75-21.78C146.12,161,145,152,143.48,142.33ZM207.07,359c-15.31-7-26.22-19.21-33.32-35.05-6.95-15.54-8.68-32.12-9-49.33-14.26-.9-27.75-.41-40.11,6.75a23.48,23.48,0,0,0-11.74,15.76c-2.7,12.61-1.06,25.09,5.73,35.8,16.36,25.78,41,40.13,70,47.54a4.69,4.69,0,0,0,3.89-1.52C197.42,372.57,202.08,366,207.07,359Zm-29.33-78.79-1.54,1.1c2.19,10.35,3.6,20.93,6.72,31,8,25.77,26.35,39.37,52.78,42.16,22.15,2.34,45.53-10.88,56.2-31.46,6.69-12.88,9.56-26.73,9.84-42.54C259.81,312.66,218.68,312.07,177.74,280.25Zm97,78.66c8.39,4.73,14.61,10.83,18.54,19.2.44.92,3.37,1.42,4.83,1,16.69-4.74,31.76-12.67,44.55-24.42,12.07-11.09,22.54-23.32,24.52-40.62,1.45-12.75.41-24.68-11.73-32.28-12.73-8-26.84-7.7-41.3-6.41C312.91,309,306.1,339.51,274.72,358.91ZM187.19,133c-6.7.54-13.08.77-19.36,1.62-8.05,1.09-11,4.89-10.08,13,.74,6.49,2,12.94,3.31,19.35,1.16,5.58,4.77,9.12,10.5,9.52,8.69.6,17.42,1.14,26.11.89,8.18-.23,14.57-4,17.86-12.08,2.06-5,4.47-9.94,6.69-14.92,3.52-7.9,1.36-12.92-7.14-14.36C205.78,134.5,196.31,134,187.19,133Zm108.46,45.27c4.91-.55,10.66-.61,16.05-2,3.13-.82,7.44-3.3,8.18-5.9a147.91,147.91,0,0,0,4.64-25.64c.45-4.42-1.94-8.12-7.43-8.1-15,.05-30.1,0-45.14.19a26.13,26.13,0,0,0-8.48,1.85c-5.27,1.94-6.68,5-4.61,10.3s4.92,10.54,7,16c3.24,8.44,10,11.56,18.18,12.55C287.64,177.88,291.29,178,295.65,178.26ZM195.77,454.43c6.34.08,11.17-4.31,11.13-10.11,0-5.54-5.27-10.43-11.15-10.42s-11,5-11,10.63C184.82,449.75,189.92,454.35,195.77,454.43Zm94.62-36.09c-5.39.12-11.07,5.84-10.91,11s5.74,9.78,11.38,9.62a10.26,10.26,0,0,0,10-10.2A10.54,10.54,0,0,0,290.39,418.34Z" transform="translate(-0.11 -0.47)"/><path class="cls-1" d="M480.09,561.35c10.31-4.28,21.24-7.5,30.82-13.06,26.34-15.27,42.26-38.56,49-68.21a21.58,21.58,0,0,1,1.13-2.91v84.18Z" transform="translate(-0.11 -0.47)"/><path class="cls-1" d="M297.49,393.43c20-5.52,38.23-13.77,53-27.85,8.09-7.7,14.75-16.95,21.73-25.77,1.76-2.23,2.93-3,5.72-2.08a127.91,127.91,0,0,1,43.76,25.08c-49.26,23.92-71.83,62.26-65,117.34H11.57c1-12.45.72-24.93,3.09-36.88,10-50,39-84.72,86.27-104.07,2.81-1.16,4.61-1.6,6.69,1.62,17.71,27.24,43.07,43.94,74.1,52.21,5.83,1.56,8.41,3.8,7.35,9.81a29.27,29.27,0,0,0,0,5.46c.13,7.27.94,13.67-8.19,18.06s-11.32,17-7.42,26.61c4,9.91,14.21,15.57,25.74,14.31a23.52,23.52,0,0,0,20.5-19.13c1.79-10.49-3.16-20.52-12.83-24.7-3.5-1.52-4.41-3.42-4.29-6.94.25-7.28,0-14.58.1-21.87.26-16.59,10.58-26.84,27.12-27,10-.07,20-.12,30.07,0,14.79.22,25.33,10.89,25.58,25.66a30.56,30.56,0,0,0,0,3.83c.84,5.69-.58,9.28-6.46,12.23-9.31,4.68-12.94,16.51-9.69,26.54a23.39,23.39,0,0,0,23.53,16c10.71-.57,19.36-8.32,21.48-19.24,2-10.33-2.92-20.53-12.61-24.74-3.52-1.53-4.6-3.42-4.25-6.93C297.68,398.74,297.49,396.36,297.49,393.43Z" transform="translate(-0.11 -0.47)"/><path class="cls-1" d="M459.19,550.22c-49.66-.13-90.33-41-90.32-90.68,0-49.49,41.31-90.63,90.69-90.32a90.94,90.94,0,0,1,90.3,91.25C549.62,509.72,508.59,550.34,459.19,550.22Zm-18.87-37.69L489.2,413.8l-11.57-5.75c-16.41,33.17-32.55,65.81-48.85,98.75Zm-52.43-51.67c10,9.26,20,18.52,29.17,27l10.68-8.47-20.95-19.95L425,440.11l-7.61-8.76Zm140.41.21-26.61-29.82L492.14,440c6.35,6.8,12.62,13.54,19.88,21.33l-20.28,18.83,8.79,8.66Z" transform="translate(-0.11 -0.47)"/><path class="cls-1" d="M329.39,25.22c-5.66,6.79-11.33,13.57-17.47,20.92l7.68.68c17.78,1.63,28.52,10.75,30.11,28.57,1.13,12.71-.31,25.72-1.26,38.54-.75,10.14-3.72,12.94-13.78,15.07-1.14.24-2.55-.65-3.8-1.1-4.85-1.77-9.7-5.11-14.53-5.08-17.42.12-34.86,1-52.23,2.4a20.67,20.67,0,0,0-16.49,10.41c-1.92,3.2-11.25,2.9-13.35-.46-4.37-7-11.06-10.36-18.67-10.83-15.59-1-31.23-1.17-46.86-1.33a24.59,24.59,0,0,0-17.13,6.09,4.47,4.47,0,0,1-3.74.57,99.37,99.37,0,0,1-12.15-4.82c-1.34-.65-2.89-2.58-2.9-3.93-.16-15.08-1.35-30.32.35-45.22,2.05-17.93,12.57-26.32,30.54-27.38,4.3-.26,6.36-.93,7.54-6,2.42-10.3,9.94-17.14,19-22.08,12.54-6.8,26.26-8.9,40.2-8.13,24.19,1.33,48.24,3.92,71.22,12.48C310.61,28,319.6,26.77,329.39,25.22Z" transform="translate(-0.11 -0.47)"/><path class="cls-1" d="M143.48,142.33C145,152,146.12,161,147.8,169.89c2.57,13.6,10.87,21.24,24.75,21.78a203,203,0,0,0,32.53-1c9.2-1.13,16.4-6.53,20.54-15.36,3.39-7.23,6.88-14.43,10.64-21.47a7.12,7.12,0,0,1,4.56-3.2c2.67-.43,5.52-.86,7.13,3,3.17,7.53,7.09,14.74,10.52,22.16,2.94,6.36,8,10.36,14.28,12.77,15.73,6,31.68,5.76,47.54.52a21.89,21.89,0,0,0,15.23-17.16c1.93-9.39,3.14-18.94,4.82-29.4,6.45-5.17,15.13-4,23.66-2.82,1.36.19,3.49,2.86,3.37,4.21-.5,5.65-.12,12.32-3,16.63-6.23,9.23-14.32,17.2-21.55,25.77-1.29,1.52-2.9,3.43-3,5.22-1.68,38.6-21.89,65.76-53.26,85.76C270.94,287.2,254,293.82,235,291.17c-25.71-3.59-46.27-16.78-63.11-36-14.82-16.88-23.59-36.48-25.3-59.16-.22-2.94-2.61-6.33-5-8.38-8.72-7.56-17.57-15.09-22.38-25.75-2.21-4.89-2.53-10.77-3-16.26-.27-3.13,1.7-5.5,5.45-5.39a4.69,4.69,0,0,0,2.67-.41C132,134.62,137.86,140.41,143.48,142.33Z" transform="translate(-0.11 -0.47)"/><path class="cls-1" d="M207.07,359c-5,6.92-9.65,13.53-14.54,19.95a4.69,4.69,0,0,1-3.89,1.52c-29-7.41-53.67-21.76-70-47.54-6.79-10.71-8.43-23.19-5.73-35.8a23.48,23.48,0,0,1,11.74-15.76c12.36-7.16,25.85-7.65,40.11-6.75.34,17.21,2.07,33.79,9,49.33C180.85,339.83,191.76,352.08,207.07,359Z" transform="translate(-0.11 -0.47)"/><path class="cls-1" d="M177.74,280.25c40.94,31.82,82.07,32.41,124,.25-.28,15.81-3.15,29.66-9.84,42.54-10.67,20.58-34,33.8-56.2,31.46-26.43-2.79-44.81-16.39-52.78-42.16-3.12-10.06-4.53-20.64-6.72-31Z" transform="translate(-0.11 -0.47)"/><path class="cls-1" d="M274.72,358.91c31.38-19.4,38.19-50,39.41-83.53,14.46-1.29,28.57-1.56,41.3,6.41,12.14,7.6,13.18,19.53,11.73,32.28-2,17.3-12.45,29.53-24.52,40.62-12.79,11.75-27.86,19.68-44.55,24.42-1.46.42-4.39-.08-4.83-1C289.33,369.74,283.11,363.64,274.72,358.91Z" transform="translate(-0.11 -0.47)"/><path class="cls-1" d="M187.19,133c9.12,1,18.59,1.51,27.89,3.07,8.5,1.44,10.66,6.46,7.14,14.36-2.22,5-4.63,9.88-6.69,14.92-3.29,8.07-9.68,11.85-17.86,12.08-8.69.25-17.42-.29-26.11-.89-5.73-.4-9.34-3.94-10.5-9.52-1.32-6.41-2.57-12.86-3.31-19.35-.93-8.16,2-12,10.08-13C174.11,133.76,180.49,133.53,187.19,133Z" transform="translate(-0.11 -0.47)"/><path class="cls-1" d="M295.65,178.26c-4.36-.29-8-.38-11.61-.81-8.21-1-14.94-4.11-18.18-12.55-2.08-5.42-4.89-10.55-7-16s-.66-8.36,4.61-10.3a26.13,26.13,0,0,1,8.48-1.85c15-.21,30.09-.14,45.14-.19,5.49,0,7.88,3.68,7.43,8.1a147.91,147.91,0,0,1-4.64,25.64c-.74,2.6-5.05,5.08-8.18,5.9C306.31,177.65,300.56,177.71,295.65,178.26Z" transform="translate(-0.11 -0.47)"/><path class="cls-1" d="M195.77,454.43c-5.85-.08-11-4.68-11-9.9,0-5.61,5.14-10.62,11-10.63s11.11,4.88,11.15,10.42C206.94,450.12,202.11,454.51,195.77,454.43Z" transform="translate(-0.11 -0.47)"/><path class="cls-1" d="M290.39,418.34a10.54,10.54,0,0,1,10.44,10.42,10.26,10.26,0,0,1-10,10.2c-5.64.16-11.22-4.55-11.38-9.62S285,418.46,290.39,418.34Z" transform="translate(-0.11 -0.47)"/><path d="M440.32,512.53l-11.54-5.73c16.3-32.94,32.44-65.58,48.85-98.75l11.57,5.75Z" transform="translate(-0.11 -0.47)"/><path d="M387.89,460.86l29.5-29.51,7.61,8.76-18.21,19.37,20.95,19.95-10.68,8.47C407.88,479.38,397.88,470.12,387.89,460.86Z" transform="translate(-0.11 -0.47)"/><path d="M528.3,461.07,500.53,488.8l-8.79-8.66L512,461.31c-7.26-7.79-13.53-14.53-19.88-21.33l9.55-8.73Z" transform="translate(-0.11 -0.47)"/></g></g></svg>